<svg xmlns="http://www.w3.org/2000/svg" version="1.1" style="display: block;" preserveAspectRatio="none" viewBox="511.66 230.14 1026.54 1355.35">
<path transform="translate(0,0)" fill="rgb(43,82,69)" d="M 566.047 904.252 C 581.552 903.433 595.721 903.876 607.244 915.838 C 621.533 930.672 630.943 951.927 641.389 969.624 C 665.439 1010.37 689.604 1051.21 732.824 1074.21 C 757.348 1087.26 775.919 1091.21 803.16 1094.98 C 799.751 1093.76 796.359 1092.5 792.983 1091.2 C 759.812 1078.29 712.449 1049.8 696.245 1017.04 C 683.651 991.585 711.04 982.356 732.082 991.224 C 752.244 999.723 768.444 1013.54 787.301 1022.98 C 868.635 1063.67 962.991 1092.14 1001.21 1184.09 C 1011.39 1208.25 1017.66 1229.26 1025.29 1254.62 C 1042.35 1183.18 1060.29 1133.88 1125.55 1090.84 C 1173.28 1058.91 1227.78 1043.84 1276.74 1013.73 C 1293.07 1004.05 1334.3 972.927 1350.61 996.384 C 1360.08 1015.26 1337.49 1037.6 1326.29 1048.1 C 1302.03 1070.88 1276.03 1080.22 1248.15 1094.83 C 1257.72 1093.46 1267.32 1091.41 1276.82 1089.52 C 1337.5 1074.86 1377.85 1021.72 1405.9 969.723 C 1412.42 957.637 1428.03 929.365 1436.41 920.061 C 1442.48 913.306 1450.34 908.412 1459.08 905.947 C 1471.21 902.456 1481.16 902.688 1492.06 908.875 C 1456.08 1010.95 1414.8 1098.15 1326.38 1166.02 C 1132.32 1314.98 802.452 1290.42 649.712 1092.45 C 614.562 1046.89 587.327 993.118 567.338 939.343 C 564.726 932.289 557.396 916.477 558.286 909.762 C 560.131 906.806 562.861 905.903 566.047 904.252 z"/>
<path transform="translate(0,0)" fill="rgb(43,82,69)" d="M 1022.94 495.64 C 1025.26 497.162 1042.36 522.655 1045.72 526.888 C 1105.84 602.619 1184.55 684.901 1266.82 736.293 C 1281.72 745.618 1296.97 754.363 1312.55 762.509 C 1320.09 766.461 1328.74 770.12 1335.88 774.371 L 1335.68 775.198 C 1321.87 773.505 1308.17 771.047 1294.64 767.836 C 1295.49 770.185 1296.41 772.512 1297.38 774.814 C 1317.9 822.762 1349.92 893.306 1391.76 926.623 C 1397.32 931.048 1409.91 935.764 1416.95 938.597 C 1402.79 939.491 1385.7 939.122 1371.32 939.097 C 1328.7 885.306 1300.88 830.633 1277.51 766.267 C 1277.33 765.919 1277.14 765.571 1276.96 765.222 L 1264.9 760.447 C 1274.48 800.078 1317.37 912.996 1346.85 938.215 L 1264.7 939.056 C 1258.3 907.511 1257.68 901.197 1229.28 883.595 C 1228.81 878.693 1228.06 873.821 1227.06 869.001 C 1223.51 852.238 1215.46 844.661 1201.96 835.96 C 1214.15 801.576 1202.15 750.244 1165.6 735.468 C 1138.4 724.47 1110.14 729.505 1087.16 746.98 C 1060.19 717.998 1035.99 673.556 1024.78 636.265 C 1021.27 646.264 1018 655.517 1014 665.355 C 1003.95 690.088 990.159 710.904 975.225 732.756 C 971.488 728.804 967.504 724.626 963.399 721.067 C 937.084 698.252 896.575 700.452 871.194 723.352 C 856.975 736.045 848.568 754.003 847.927 773.052 C 847.094 792.777 854.766 812.566 868.074 827.048 C 810.186 841.351 791.459 885.604 781.428 939.056 C 762.271 936.719 722.171 938.987 700.388 938.37 C 707.518 927.719 714.829 919.233 722.193 907.461 C 747.873 866.409 772.695 806.072 784.23 759.301 C 779.554 761.225 774.996 763.614 770.463 765.876 C 752.558 826.231 716.317 890.484 676.103 938.703 C 667.417 938.84 643.585 939.956 636.361 937.395 C 643.676 933.64 652.618 929.16 659.003 923.556 C 692.317 894.313 716.697 849.009 736.04 809.595 C 742.969 795.475 747.399 781.022 755.024 767.411 C 740.41 771.455 720.382 773.825 704.339 777.44 C 708.057 775.035 718.751 770.398 723.942 767.396 C 745.021 755.206 768.584 743.493 788.783 729.927 C 877.545 670.312 964.481 585.159 1022.94 495.64 z"/>
<path transform="translate(0,0)" fill="rgb(191,185,145)" d="M 791.574 444.324 C 802.316 443.928 862.253 442.711 868.115 445.946 C 871.401 453.143 870.011 484.668 870.906 496.481 C 878.595 496.085 908.227 494.336 912.84 498.025 C 915.334 507.723 914.559 532.494 914.544 543.95 C 914.395 565.689 914.457 587.429 914.729 609.167 C 850.294 667.274 781.344 718.059 707.877 763.644 C 697.685 769.967 689.728 780.962 678.539 788.302 C 666.569 796.405 654.314 804.081 641.799 811.315 C 641.462 768.366 642.458 725.27 642.028 682.297 C 641.908 670.319 640.921 651.624 643.544 640.529 C 650.117 637.24 687.208 639.09 698.376 638.215 L 699.734 638.103 C 699.25 595.777 699.291 553.446 699.859 511.12 C 714.54 510.827 764.577 510.037 776.639 511.671 C 786.173 518.104 775.389 566.018 784.495 579.262 L 787.427 577.875 C 789.159 572.533 788.741 557.149 788.75 550.597 L 788.579 480.842 C 788.544 470.52 788.228 458.629 788.981 448.296 C 789.192 445.415 789.747 445.6 791.574 444.324 z M 727.031 637.633 C 735.145 637.028 738.327 637.392 746.516 638.315 L 747.946 638.121 C 749.79 633.895 748.348 615.503 748.039 610.118 C 742.118 610.203 735.519 610.149 729.665 610.428 L 727.513 611.702 C 726.454 617.74 727.024 630.849 727.031 637.633 z M 857.969 607.852 L 876.876 607.57 C 878.088 599.005 877.796 591.568 877.693 582.988 C 870.494 582.378 864.956 582.204 857.718 582.148 C 857.815 590.684 857.988 599.324 857.969 607.852 z M 749.026 675.189 C 744.077 674.666 740.453 674.133 735.443 674.409 C 730.646 674.642 730.832 673.818 727.919 676.248 C 725.195 684.608 727.442 691.269 727.104 700.777 C 733.693 700.123 737.297 700.141 743.863 700.267 L 746.938 700.426 C 750.595 695.756 748.623 682.537 749.026 675.189 z M 672.914 701.766 L 693.834 701.011 C 694.428 694.085 693.91 685.288 693.686 678.191 L 673.187 677.813 L 672.914 701.766 z M 835.738 505.638 C 837.719 502.882 837.069 485.495 837.137 480.29 C 830.852 480.431 821.578 480.9 815.574 480.417 C 814.059 485.448 815.019 499.137 814.891 505.271 L 835.738 505.638 z M 858.05 550.859 C 864.547 550.838 870.941 550.734 877.427 551.16 C 877.966 542.254 878.05 535.143 877.93 526.211 L 858.034 526.303 L 858.05 550.859 z M 793.476 638.059 L 805.991 638.122 L 812.185 638.773 C 814.502 636.501 817.651 606.239 805.849 610.11 C 805.559 610.205 803.041 610.333 802.467 610.392 C 797.521 610.774 797.323 609.906 794.507 612.512 C 791.439 621.722 793.43 628.226 793.476 638.059 z M 735.312 546.515 C 730.44 546.83 730.471 545.965 727.783 548.526 C 725.148 555.999 727.26 562.922 727.11 571.803 C 734.342 571.911 737.596 572.283 744.769 573.41 L 747.224 573.688 C 749.849 569.767 748.462 553.318 749.042 546.64 C 744.463 546.551 739.89 546.41 735.312 546.515 z"/>
<path transform="translate(0,0)" fill="rgb(43,82,69)" d="M 1006.66 230.441 C 1006.79 230.427 1006.91 230.413 1007.04 230.399 C 1118.55 226.635 1235.06 264.264 1321.29 335.144 C 1383.44 386.229 1429.58 453.157 1455.76 528.719 C 1463.37 550.682 1472.21 581.833 1474.48 604.755 C 1470 606.438 1467.67 607.677 1462.82 607.717 C 1460.1 606.459 1459.37 605.662 1458.62 602.424 C 1424.54 456.359 1324.58 344.872 1181.57 291.58 C 1069.39 249.835 945.203 254.392 836.375 304.247 C 827.205 307.507 806.37 319.008 797.731 324.023 C 736.388 359.116 684.72 408.894 647.367 468.888 C 595.097 552.874 575.172 653.01 591.31 750.609 C 593.5 764.207 596.583 777.252 599.734 790.629 C 601.54 798.297 611.311 820.869 607.387 826.744 L 605.101 826.303 C 600.441 821.912 588.426 787.88 586.54 781.281 C 578.817 754.271 572.148 724.336 570.377 696.233 C 562.555 580.283 602.098 466.119 679.965 379.849 C 763.452 285.947 882.718 237.622 1006.66 230.441 z"/>
<path transform="translate(0,0)" fill="rgb(121,143,106)" d="M 1262.35 446.909 C 1287.67 452.125 1310.44 469.292 1320.37 493.183 C 1330.39 517.312 1336.13 532.793 1355.21 551.856 C 1345.75 514.296 1334.8 499.013 1355.61 460.056 C 1381.11 492.126 1378.51 508.748 1362.66 544.061 C 1356.79 557.123 1375.86 601.982 1383.57 614.843 C 1389.34 574.987 1368.14 561.222 1411.63 528.873 C 1430.66 586.808 1391.63 585.018 1390.1 614.588 C 1389.02 635.461 1396.85 657.213 1401.34 677.417 C 1406.54 700.771 1410.36 725.283 1410.25 749.245 C 1412.59 741.62 1421.65 717.047 1421.42 710.643 C 1419.68 662.594 1429.24 639.486 1477.09 619.304 C 1482.35 651.618 1481.01 686.014 1451.73 707.814 C 1438.33 716.486 1431 717.387 1423.33 732.52 C 1408.08 762.576 1415.07 799.834 1407.01 829.394 L 1406.67 830.567 C 1425.69 841.589 1445.1 851.92 1464.86 861.54 C 1476.02 866.963 1492.15 873.42 1502.09 879.915 C 1466.1 880.025 1453.77 881.313 1418.78 886.187 C 1408.44 888.055 1398.16 890.254 1387.96 892.779 C 1382.64 886.757 1376.5 877.358 1371.36 870.796 C 1356.91 852.203 1343.57 832.633 1330.96 812.755 C 1328.91 809.524 1311.06 780.979 1311.11 780.12 C 1321.61 781.025 1385.91 819.1 1398.65 825.929 C 1399.38 805.389 1403.79 765.816 1394.81 747.918 C 1387.69 733.722 1367.08 733.419 1352.49 729.144 C 1322.2 720.27 1309.4 697.402 1295.31 671.039 C 1312.43 667.101 1328.67 663.068 1346.06 668.439 C 1383.08 679.873 1384.16 713.631 1399.1 741.163 L 1400.04 742.878 C 1399.8 717.661 1393.03 671.278 1382.08 647.715 C 1365.82 612.741 1331.89 632.572 1302.71 620.817 C 1277.04 610.475 1264.16 594.503 1252.48 569.984 C 1336.17 566.107 1325.78 586.764 1379.58 632.331 C 1367.15 607.892 1350.26 547.341 1325.51 531.451 C 1313.36 523.647 1294.92 525.294 1279.89 504.981 C 1267.96 488.851 1260.06 466.97 1262.35 446.909 z"/>
<path transform="translate(0,0)" fill="rgb(43,82,69)" d="M 896.625 840.428 C 897.946 840.214 898.998 840.163 900.264 840.087 C 950.335 837.744 992.947 855.589 1014.31 902.62 C 1030.2 937.587 1019.04 964.303 1046.8 993.596 C 1044.65 996.832 1038.66 998.614 1034.99 1001.37 C 1025.49 1008.51 1015.02 1022.67 1001.97 1021.85 L 1001.26 1020.65 C 1003.49 1012.69 1012.14 1004.49 1015.35 993.065 C 1030.4 939.465 981.465 897.456 930.56 924.745 C 896.394 949.823 894.64 989.323 923.819 1019.12 C 905.263 1024.04 892.01 1034.55 883.986 1051.97 C 871.016 1046.62 856.925 1039.06 843.605 1033.09 C 830.341 1027.14 813.701 1020.91 801.285 1013.55 C 799.035 1012.33 797.813 1006.69 797.82 1004.44 C 798.003 948.284 793.417 871.077 857.785 847.637 C 871.528 842.633 882.221 841.774 896.625 840.428 z"/>
<path transform="translate(0,0)" fill="rgb(121,143,106)" d="M 1127.31 740.234 C 1175.24 734.722 1201.07 786.463 1192.98 827.468 C 1191.62 834.359 1189.97 839.326 1187.49 845.905 C 1202.04 852.458 1212.44 861.777 1218.15 876.823 C 1211.33 879.853 1204.46 882.754 1197.53 885.524 C 1217 893.198 1233.53 899.263 1243.91 919.106 C 1251.38 933.391 1254.74 997.666 1250.29 1009.77 C 1245.02 1014.25 1186.29 1042.44 1177.55 1045.18 L 1176.51 1043.94 C 1177.86 1027.86 1169.44 1007.82 1156.84 998.028 C 1148.82 991.8 1140.56 989.19 1131.13 986.108 C 1150.4 960.896 1157.76 938.006 1139.93 908.788 C 1118.61 880.526 1087.7 880.305 1056.16 889.741 C 1062.48 877.647 1073.31 865.145 1077.73 852.377 C 1083.27 836.318 1075.68 815.734 1080.72 798.926 C 1082.33 793.557 1085.51 786.526 1090.81 784.072 C 1101.2 779.512 1114.25 779.338 1124.94 782.746 C 1148.6 790.287 1157.09 816.138 1148.68 838.299 C 1142.13 855.584 1127.51 863.119 1111.45 869.985 C 1122.7 869.99 1130 868.81 1139.78 862.766 C 1185.66 834.411 1158.22 754.562 1103.16 766.978 C 1093.36 769.186 1087.75 773.019 1079.6 778.181 C 1091.2 755.673 1101.3 744.999 1127.31 740.234 z"/>
<path transform="translate(0,0)" fill="rgb(43,82,69)" d="M 1348.19 1304.06 C 1370.75 1304.21 1393.31 1304.21 1415.87 1304.07 C 1432.41 1304.05 1451.5 1302.87 1467.43 1306.57 C 1529.12 1320.89 1540.95 1399.13 1502.51 1442.68 C 1475.78 1468.09 1444.52 1464.22 1410.1 1464.1 L 1347.91 1463.79 C 1348.11 1411.01 1347.15 1356.6 1348.19 1304.06 z M 1379.21 1436.06 C 1396.89 1436.15 1414.72 1436.18 1432.39 1436.29 C 1451.53 1436.42 1462.88 1435.57 1477.91 1422.43 C 1495.7 1399.61 1496.37 1360.12 1472.38 1341.46 C 1467.13 1337.36 1460.99 1334.56 1454.46 1333.28 C 1441.91 1330.73 1395.37 1332.3 1379.34 1331.93 C 1379.05 1366.38 1379.85 1401.84 1379.21 1436.06 z"/>
<path transform="translate(0,0)" fill="rgb(43,82,69)" d="M 558.06 1304.25 C 592.925 1303.59 628.825 1304.23 663.902 1303.98 C 663.531 1313.14 663.791 1323.04 663.859 1332.26 C 631.471 1331.57 598.707 1332.32 566.46 1332.04 C 555.33 1331.95 543.99 1345.13 546.448 1352.53 C 559.065 1390.81 634.432 1352.94 660.447 1380.48 C 694.81 1416.87 670.918 1460.62 623.25 1463.74 C 589.105 1465.01 548.669 1464 514.109 1463.81 C 514.099 1454.57 514.138 1445.32 514.226 1436.08 L 587.081 1436.18 C 599.254 1436.18 612.616 1436.55 624.691 1435.66 C 633.743 1434.99 636.863 1430.66 641.932 1424.03 C 642.592 1413.82 641.251 1401.07 628.35 1398.93 C 591.803 1392.88 523.626 1414.02 512.605 1361.56 C 510.054 1349.12 512.714 1336.18 519.964 1325.76 C 529.554 1311.94 542.316 1306.79 558.06 1304.25 z"/>
<path transform="translate(0,0)" fill="rgb(43,82,69)" d="M 923.791 1304.02 L 955.334 1304.16 C 962.162 1310.39 974.879 1326.08 981.297 1333.64 C 995.842 1350.74 1010.29 1367.91 1024.65 1385.16 C 1033.76 1396.1 1044.18 1409.36 1053.91 1419.52 C 1053.93 1381.41 1052.43 1342.11 1053.48 1304.09 C 1063.56 1304.24 1073.93 1304.13 1084.03 1304.14 C 1084.52 1357.25 1083.45 1410.96 1084.44 1464 L 1053.3 1464.01 C 1050.05 1459.31 1044.79 1453.42 1040.96 1449.06 C 1011.51 1415.48 983.575 1379.62 953.55 1346.61 C 954.847 1384.63 953.118 1425.42 953.906 1464 L 923.267 1464.04 C 923.193 1412.9 921.858 1354.49 923.791 1304.02 z"/>
<path transform="translate(0,0)" fill="rgb(43,82,69)" d="M 774.098 1304.16 C 781.91 1304.05 795.709 1303.29 802.601 1305.15 C 809.049 1309.84 874.753 1443.59 886.368 1464.02 L 849.01 1463.93 C 844.678 1453.17 837.661 1439.09 832.673 1428.28 C 822.994 1428.51 813.312 1428.58 803.631 1428.5 C 784.38 1427.67 764.403 1428.86 744.715 1428.08 C 739.127 1440.08 733.615 1452.4 727.322 1464.02 L 692.306 1463.95 C 713.132 1427.07 731.613 1385.03 751.749 1347.39 C 758.884 1334.05 766.439 1316.85 774.098 1304.16 z M 758.809 1401.88 L 787.75 1402.02 C 798.21 1401.94 809.044 1401.98 819.47 1401.74 C 814.32 1392.55 791.743 1343.13 788.666 1339.83 C 778.832 1360.02 767.945 1381.45 758.809 1401.88 z"/>
<path transform="translate(0,0)" fill="rgb(43,82,69)" d="M 1200.62 1304.23 C 1210.1 1304.04 1220.15 1304.23 1229.67 1304.24 C 1232.88 1309.54 1236.05 1316.07 1238.75 1321.66 C 1261.94 1369.8 1288.35 1416.45 1312.47 1464.05 L 1277.35 1463.95 C 1271.3 1453.55 1264.52 1439.26 1259.77 1428.26 C 1250.15 1428.35 1240.54 1428.37 1230.92 1428.31 L 1171.54 1428.14 L 1154.76 1463.96 L 1119.1 1464.06 C 1134.96 1430.92 1153.96 1397.06 1170.18 1363.72 C 1175.04 1353.75 1195.73 1311.16 1200.62 1304.23 z M 1185.05 1402.05 L 1217.25 1402.02 L 1245.74 1402.02 C 1237.72 1385.42 1223.96 1354.53 1215.03 1339.54 C 1205.42 1360.55 1195.43 1381.4 1185.05 1402.05 z"/>
<path transform="translate(0,0)" fill="rgb(191,185,145)" d="M 948.897 1022.27 C 960.009 1022.2 976.41 1023.38 986.908 1026.34 C 1057.13 1046.2 1038.7 1139.47 1023.43 1191.1 C 1019.06 1181.42 1014.89 1171.7 1009.66 1162.45 C 978.541 1112.39 944.338 1083.72 892.512 1055.84 C 905.948 1036.41 925.653 1025.69 948.897 1022.27 z"/>
<path transform="translate(0,0)" fill="rgb(43,82,69)" d="M 858.135 1507.31 C 859.865 1507.16 861.597 1507.04 863.33 1506.94 C 899.93 1504.82 907.686 1536.79 908.211 1566.01 C 927.902 1566.45 948.92 1566.05 968.712 1566.02 C 969.211 1553.38 969.639 1540.74 969.996 1528.09 C 984.349 1525.71 992.565 1525.53 991.777 1543.28 C 991.443 1550.79 991.404 1558.84 991.312 1566.4 C 1017.04 1567.27 1044.2 1566.86 1070.04 1566.96 C 1088.99 1567.04 1112.56 1567.64 1130.98 1565.9 C 1131.51 1560.98 1131.93 1555.88 1131.62 1550.95 C 1130.48 1533.12 1135.9 1533.49 1150.6 1534.08 C 1151.06 1540.55 1148.5 1564.22 1156.25 1566.3 C 1179.41 1572.54 1168.94 1547.07 1172.67 1536.71 C 1177.12 1532.44 1185.34 1533.58 1191.91 1533.58 C 1191.96 1538.45 1190.7 1562.39 1195.73 1564.81 C 1222.53 1577.75 1208.39 1543.48 1214.33 1533.2 C 1217.4 1531.36 1222.44 1531.99 1226.25 1532.05 C 1227.97 1532.11 1228.62 1532.34 1230.32 1532.7 C 1234.63 1540.06 1232.83 1566.88 1227.55 1574.21 C 1216.37 1589.71 1196.84 1587.57 1182.86 1577.8 C 1167 1587.12 1154.17 1589.13 1139.99 1575.47 L 1130.26 1582.8 C 1116.51 1583.55 1099.11 1582.96 1084.94 1582.93 L 1006.07 1582.87 L 893.544 1582.93 C 883.599 1582.95 833.341 1584.3 826.573 1581.37 C 823.713 1577.4 823.723 1573.49 824.422 1568.81 C 825.694 1567.55 826.659 1566.18 828.684 1566.13 C 846.996 1565.71 868.03 1565.81 886.122 1565.74 C 886.123 1560.11 886.053 1556.2 885.24 1551.06 C 879.343 1513.76 860.844 1526.43 851.806 1519.75 C 850.457 1514.36 853.567 1509.96 858.135 1507.31 z"/>
<path transform="translate(0,0)" fill="rgb(43,82,69)" d="M 914.9 717.536 C 947.011 714.586 975.553 737.934 979.027 769.992 C 982.5 802.05 959.62 830.969 927.623 834.964 C 906.455 837.607 885.508 828.632 872.821 811.483 C 860.134 794.334 857.679 771.677 866.399 752.209 C 875.119 732.741 893.658 719.488 914.9 717.536 z"/>
<path transform="translate(0,0)" fill="rgb(121,143,106)" d="M 1092.3 992.222 C 1111.93 991.473 1134.1 997.908 1149.09 1011.63 C 1156.35 1016.15 1169.92 1046.25 1159.65 1052.01 C 1151.69 1056.47 1138.48 1063.68 1129.71 1068.54 C 1107.07 1081.09 1090.22 1095.99 1071.67 1113.99 C 1065.88 1119.49 1055.69 1131.85 1051.2 1138.25 C 1051.48 1135.5 1051.67 1132.74 1051.77 1129.99 C 1053.27 1089.78 1052.72 1057.98 1023.88 1027.04 C 1046.32 1006.18 1062.71 997.609 1092.3 992.222 z"/>
<path transform="translate(0,0)" fill="rgb(121,143,106)" d="M 1081.65 895.338 C 1091.81 894.78 1103.35 896.778 1112.29 901.562 C 1123.44 907.42 1131.62 917.68 1134.85 929.852 C 1142.86 960.063 1120.92 980.795 1093.42 987.296 C 1029.33 996.835 1012.84 902.618 1081.65 895.338 z"/>
<path transform="translate(0,0)" fill="rgb(121,143,106)" d="M 735.31 780.02 C 735.64 780.67 735.97 781.319 736.301 781.968 C 725.152 804.46 677.164 874.541 659.176 892.239 C 630.638 884.208 593.033 880.28 563.459 880.016 L 547.474 879.992 C 554.536 874.843 563.604 871.297 571.578 867.41 C 582.881 861.834 594.094 856.074 605.21 850.134 C 633.175 835.06 660.761 818.59 688.765 803.573 C 703.332 795.761 720.187 786.271 735.31 780.02 z"/>
<path transform="translate(0,0)" fill="rgb(191,185,145)" d="M 954.402 928.788 C 979.411 924.981 1002.83 941.982 1006.97 966.94 C 1011.1 991.897 994.4 1015.54 969.498 1019.99 C 953.1 1022.93 936.392 1016.81 925.763 1003.98 C 915.134 991.157 912.229 973.603 918.158 958.036 C 924.087 942.468 937.933 931.294 954.402 928.788 z"/>
<path transform="translate(0,0)" fill="rgb(121,143,106)" d="M 512.966 1554.13 C 578.271 1552.59 644.462 1554.93 709.851 1553.9 C 713.91 1553.83 720.343 1553.57 723.996 1554.58 C 725.644 1557.47 724.797 1560.8 724.478 1564.32 C 701.473 1564.15 517.815 1566.08 512.499 1563 C 511.64 1559.59 512.327 1557.59 512.966 1554.13 z"/>
<path transform="translate(0,0)" fill="rgb(121,143,106)" d="M 1333.53 1554.04 C 1357.21 1553.46 1532.06 1553.04 1536.79 1555.15 C 1538.91 1558.81 1538.07 1558.96 1537.88 1564.04 C 1520.64 1564.72 1338.05 1565.19 1333.7 1563.57 C 1332.32 1560.11 1333.04 1557.77 1333.53 1554.04 z"/>
<path transform="translate(0,0)" fill="rgb(191,185,145)" d="M 1291.48 1535.3 C 1303.08 1535.33 1312.55 1544.6 1312.82 1556.2 C 1313.1 1567.8 1304.09 1577.51 1292.51 1578.11 C 1284.73 1578.51 1277.34 1574.65 1273.22 1568.03 C 1269.11 1561.42 1268.91 1553.09 1272.7 1546.28 C 1276.5 1539.48 1283.69 1535.27 1291.48 1535.3 z"/>
<path transform="translate(0,0)" fill="rgb(191,185,145)" d="M 758.999 1536.68 C 770.044 1532.96 782.015 1538.89 785.746 1549.93 C 789.477 1560.97 783.558 1572.94 772.52 1576.69 C 761.468 1580.43 749.472 1574.5 745.736 1563.45 C 742 1552.39 747.94 1540.4 758.999 1536.68 z"/>
<path transform="translate(0,0)" fill="rgb(43,82,69)" d="M 970.98 1480.83 C 973.058 1480.87 974.665 1480.96 976.733 1481.3 C 980.685 1481.96 984.171 1484.26 986.318 1487.65 C 991.259 1495.34 985.745 1500.73 979.232 1504.03 C 960.688 1504.45 954.512 1490.88 970.98 1480.83 z"/>
</svg>